<svg xmlns="http://www.w3.org/2000/svg" viewBox="0 0 64 64">
    <defs>
        <style>
            .cls-1{fill:none;stroke:#fff;stroke-linecap:round;stroke-linejoin:round;stroke-width:2px}
        </style>
    </defs>
    <g>
        <path d="M30.5 51H17.2a4.6 4.6 0 0 1-4.6-4.6V17.3a4.6 4.6 0 0 1 4.6-4.6h28.6M50.4 17.3v29a4.6 4.6 0 0 1-4.6 4.7h-9"
              class="cls-1"/>
        <circle fill="#fff" cx="50.5" cy="13.9" r="1"/>
        <path d="M30.5 51V38.5h-4.4v-6h4.4v-5.7a6 6 0 0 1 6-6h6.3v5.7h-4.6a1.5 1.5 0 0 0-1.5 1.5v4.5h6v6h-6V51"
              class="cls-1"/>
    </g>
</svg>
