<svg xmlns="http://www.w3.org/2000/svg" viewBox="0 0 64 64">
    <defs>
        <style>
            .cls-1{fill:none;stroke:#fff;stroke-linecap:round;stroke-linejoin:round;stroke-width:2px}
        </style>
    </defs>
    <g>
        <path d="M50.5 17.1v29.1a4.6 4.6 0 0 1-4.7 4.7H17.4a4.6 4.6 0 0 1-4.7-4.7v-29a4.6 4.6 0 0 1 4.7-4.7h28.6"
              class="cls-1"/>
      <circle fill="#fff" cx="50.5" cy="13.8" r="1"/>
        <path d="M25.5 32.7A12.2 12.2 0 0 1 22 31a5.4 5.4 0 0 1-1.8-3.8c0-.6-.2-3.5.8-3.4l.4.2a11 11 0 0 0 .8 1h0a12 12 0 0 0 8.9 3.3 5 5 0 0 1 7.2-5.2 6.2 6.2 0 0 0 1.6.8 3.9 3.9 0 0 0 1.2 0l3-.4a18 18 0 0 0-2.5 4 18.4 18.4 0 0 0-1 4.1 12.2 12.2 0 0 1-5.1 7.8s0 0 0 0a9.7 9.7 0 0 1-1.2.7h0a11 11 0 0 1-1.7.8h0l-.6.2-.6.1A18.3 18.3 0 0 1 23 41l-1.2-.3-1.3-.4A10.5 10.5 0 0 0 25 39c.3-.2.6-.4.6-.7a.8.8 0 0 0-.4-.6 14 14 0 0 1-2.7-3.2"
              class="cls-1"/>
    </g>
</svg>
