<svg xmlns="http://www.w3.org/2000/svg" xml:space="preserve" width="800" height="800" viewBox="0 0 491 491">
  <path d="M445.8 308.4 392.4 232V97.2c0-6.6-2.6-12.9-7.3-17.6L312.8 7.3C308 2.6 301.8 0 295 0H77.6C54.2 0 35.1 19 35.1 42.5v383.2c0 23.4 19 42.5 42.5 42.5h199a55.5 55.5 0 0 0 44.7 22.8h34.4c15 0 28.5-6 38.5-15.6a55.5 55.5 0 0 0 17.4-40.3v-40a55.6 55.6 0 0 0 34.2-86.7zM170 415H87.4V53.3h175.7v46.8a30.2 30.2 0 0 0 30.2 30.2h46.8v66.3h-.3a55.3 55.3 0 0 0-47 23.5l-61.5 88.3a55.7 55.7 0 0 0 34.2 86.6V415H170zm240.2-69.1c-2 3.8-6 6.2-10.3 6.2h-32.6v83c0 6.5-5.3 11.8-11.7 11.8h-34.3c-6.5 0-11.7-5.3-11.7-11.7v-83H277a11.7 11.7 0 0 1-9.6-18.4l61.5-88c2.1-3.2 5.7-5 9.5-5s7.4 1.8 9.6 5l61.4 88c2.5 3.6 2.8 8.2.8 12z"/>
</svg>
