<svg xmlns="http://www.w3.org/2000/svg" viewBox="0 0 64 64">
    <defs>
        <style>
            .cls-1{fill:none;stroke:#fff;stroke-linecap:round;stroke-linejoin:round;stroke-width:2px}
        </style>
    </defs>
    <g>
        <path d="M50.5 17.1v29.1a4.6 4.6 0 0 1-4.7 4.7H17.4a4.6 4.6 0 0 1-4.7-4.7v-29a4.6 4.6 0 0 1 4.7-4.7h28.6"
              class="cls-1"/>
        <circle fill="#fff" cx="50.5" cy="13.8" r="1"/>
        <path d="M25.2 24a5.1 5.1 0 0 0-4.3 5v6a5.1 5.1 0 0 0 5.1 5.1h4.7M38.4 23.9H26a3.7 3.7 0 0 0-.8 0M30.7 40.1h7.7a5.1 5.1 0 0 0 5.1-5.1v-6a5.1 5.1 0 0 0-1.3-3.4M32.8 30.3l3 1.7-3 1.7-3 1.8v-7"
              class="cls-1"/>
    </g>
</svg>
